<svg width="158" height="40" fill="none" xmlns="http://www.w3.org/2000/svg"><path d="M18.218 7.823v-5h-15.8v34.353h15.8v-5c-3.237 0-6.34-1.283-8.63-3.566A12.163 12.163 0 016.015 20a12.16 12.16 0 013.575-8.61 12.217 12.217 0 018.629-3.567z" fill="#010032"/><path d="M18.217 7.823v24.353c3.236 0 6.34-1.283 8.63-3.566A12.163 12.163 0 0030.42 20c0-3.23-1.285-6.327-3.574-8.61a12.218 12.218 0 00-8.63-3.567zm21.07 3.059h3.537v17h-3.537v-17zm5.518 11.177c0-1.223.364-2.419 1.046-3.435a6.203 6.203 0 019.534-.92 6.172 6.172 0 011.32 6.743 6.18 6.18 0 01-2.296 2.765 6.2 6.2 0 01-3.449 1.023 6.119 6.119 0 01-4.379-1.797 6.093 6.093 0 01-1.776-4.38zm8.867 0a2.677 2.677 0 00-1.708-2.428 2.693 2.693 0 00-2.905.627 2.68 2.68 0 001.925 4.554 2.623 2.623 0 002.503-1.7c.126-.336.181-.694.161-1.053h.024zm17.439-5.824v11.07c0 3.907-3.066 5.566-6.167 5.566a5.907 5.907 0 01-5.53-2.824l2.984-1.718a2.672 2.672 0 002.664 1.47 2.364 2.364 0 002.485-1.478c.127-.323.18-.67.157-1.015v-1.07a4.16 4.16 0 01-3.408 1.505 5.902 5.902 0 01-4.169-1.723 5.875 5.875 0 010-8.319 5.902 5.902 0 014.169-1.723 4.17 4.17 0 013.407 1.506v-1.176l3.408-.07zm-3.407 5.588a2.818 2.818 0 00-1.663-2.69 2.835 2.835 0 00-3.123.534 2.822 2.822 0 001.956 4.862 2.648 2.648 0 002.017-.726 2.634 2.634 0 00.813-1.98zm5.4.236c0-1.222.363-2.417 1.044-3.433a6.202 6.202 0 019.528-.93 6.172 6.172 0 011.334 6.735 6.18 6.18 0 01-2.285 2.77 6.2 6.2 0 01-3.443 1.034 6.131 6.131 0 01-4.39-1.792 6.105 6.105 0 01-1.788-4.384zm8.867 0a2.679 2.679 0 00-1.71-2.428 2.693 2.693 0 00-2.907.63 2.68 2.68 0 00.451 4.109c.442.29.96.444 1.49.442a2.623 2.623 0 002.503-1.7c.126-.336.18-.694.161-1.053h.012zm5.129-8.941a2.091 2.091 0 011.295-1.935 2.103 2.103 0 012.288.454 2.093 2.093 0 01-1.485 3.575 2.125 2.125 0 01-1.477-.62 2.115 2.115 0 01-.621-1.474zm.342 3.117h3.537v11.647h-3.537V16.235zm18.677 5.824a5.894 5.894 0 01-.336 2.28 5.898 5.898 0 01-3.046 3.344 5.91 5.91 0 01-2.242.552 4.395 4.395 0 01-3.538-1.423v5.753H93.42v-16.33h3.537v1.094a4.374 4.374 0 013.538-1.411 5.905 5.905 0 014.086 1.908 5.87 5.87 0 011.538 4.233zm-3.537 0a2.778 2.778 0 00-3.372-2.643 2.784 2.784 0 00-2.146 2.204 2.77 2.77 0 001.205 2.828c.458.3.994.46 1.542.458a2.669 2.669 0 002.616-1.746c.129-.352.181-.727.155-1.101zm14.303 2.329c0 2.683-2.358 3.824-4.858 3.824a5.113 5.113 0 01-5.023-2.776l3.042-1.718a1.91 1.91 0 001.969 1.376c.837 0 1.262-.259 1.262-.73 0-1.282-5.743-.6-5.743-4.635 0-2.54 2.146-3.811 4.575-3.811a5.128 5.128 0 014.623 2.482l-3.043 1.6a1.718 1.718 0 00-1.568-1.023c-.613 0-.978.235-.978.646 0 1.342 5.742.46 5.742 4.765zm12.817-8.153v11.648h-3.538v-1.095a4.023 4.023 0 01-3.325 1.447c-2.358 0-4.374-1.682-4.374-4.823v-7.177h3.537v6.648a1.936 1.936 0 002.04 2.118c1.273 0 2.17-.754 2.17-2.354v-6.412h3.49zm20.045 4.495v7.152h-3.538v-6.847c0-1.176-.554-1.906-1.674-1.906-1.12 0-1.828.812-1.828 2.189v6.564h-3.537v-6.847c0-1.176-.554-1.906-1.674-1.906-1.12 0-1.828.812-1.828 2.189v6.564h-3.537V16.235h3.537v1.07a3.605 3.605 0 013.137-1.387 3.461 3.461 0 013.053 1.53 3.854 3.854 0 013.385-1.53c2.759 0 4.504 1.905 4.504 4.811zm2.97-4.565a2.59 2.59 0 002.594-2.588 2.591 2.591 0 00-2.594-2.589 2.591 2.591 0 00-2.594 2.588 2.59 2.59 0 002.594 2.589z" fill="#010032"/></svg>