<svg width="150" height="40" fill="none" xmlns="http://www.w3.org/2000/svg"><path d="M50.944 28.805a2.999 2.999 0 01-1.898-.548 1.782 1.782 0 01-.716-1.497V16.165a.3.3 0 01.198-.317.295.295 0 01.132-.014h1.909c.216 0 .318.114.318.331v9.772c0 .434.193.651.591.651.169.007.337-.012.5-.057.227 0 .352.069.364.274l.17 1.429a.302.302 0 01-.056.24.295.295 0 01-.217.114 4.257 4.257 0 01-1.295.217zm10.737-1.223a5.333 5.333 0 01-6.818 0 4.585 4.585 0 01-1.316-3.217c0-1.204.473-2.36 1.316-3.217a5.356 5.356 0 016.818 0 4.654 4.654 0 011.284 3.212c0 1.197-.46 2.347-1.284 3.211v.011zm-5.023-1.508a2.413 2.413 0 003.25 0 2.568 2.568 0 000-3.36 2.413 2.413 0 00-3.25 0 2.57 2.57 0 000 3.36zm16.819-5.863c.216 0 .318.115.318.332v8.194a3.743 3.743 0 01-1.261 2.937 4.755 4.755 0 01-3.307 1.143 5.296 5.296 0 01-3.08-.857 3.42 3.42 0 01-1.488-2.286c0-.229 0-.331.307-.331h1.909a.42.42 0 01.375.262c.124.348.37.637.693.812.393.204.83.306 1.273.297a1.999 1.999 0 001.466-.526 1.943 1.943 0 00.534-1.428v-.72a3.792 3.792 0 01-2.364.743 4.388 4.388 0 01-3.227-1.246 4.585 4.585 0 01-1.277-3.177c0-1.186.458-2.325 1.277-3.177a4.442 4.442 0 013.227-1.235 3.804 3.804 0 012.42.789v-.183a.3.3 0 01.081-.242.296.296 0 01.238-.09l1.886-.01zm-4.409 6.537a1.988 1.988 0 001.557-.674 2.81 2.81 0 000-3.429 1.989 1.989 0 00-1.546-.662 2.034 2.034 0 00-1.58.674 2.431 2.431 0 00-.613 1.714c-.02.624.195 1.232.603 1.703a2.057 2.057 0 001.579.674zm14.535.834a5.356 5.356 0 01-6.818 0 4.665 4.665 0 01-1.285-3.217c0-1.198.46-2.351 1.285-3.217a5.368 5.368 0 016.818 0 4.654 4.654 0 011.284 3.212c0 1.197-.46 2.347-1.284 3.211v.011zm-5.034-1.508a2.269 2.269 0 001.636.628 2.26 2.26 0 001.625-.628 2.603 2.603 0 000-3.36 2.272 2.272 0 00-1.625-.629 2.263 2.263 0 00-1.636.629 2.604 2.604 0 000 3.36zm10.419-7.806a1.642 1.642 0 01-2.17 0 1.383 1.383 0 01-.319-1.553 1.38 1.38 0 01.319-.458 1.676 1.676 0 012.17 0 1.38 1.38 0 01.432 1.005 1.389 1.389 0 01-.432 1.006zm.24 10.537a3.044 3.044 0 01-1.899-.548 1.804 1.804 0 01-.704-1.497v-6.218a.298.298 0 01.33-.331h1.908c.216 0 .319.114.319.331v5.395c0 .434.193.651.58.651a1.75 1.75 0 00.51-.057c.228 0 .353.069.364.274l.17 1.429a.299.299 0 01-.151.32.294.294 0 01-.121.034c-.422.14-.863.213-1.307.217zm8.602-8.868a4.432 4.432 0 013.25 1.234 4.703 4.703 0 010 6.389 4.422 4.422 0 01-3.25 1.245 3.892 3.892 0 01-2.375-.742v4.125c0 .217-.114.32-.33.32h-1.909a.271.271 0 01-.31-.188.278.278 0 01-.008-.132v-9.371a.598.598 0 00-.399-.65.589.589 0 00-.271-.025h-.375c-.25 0-.375-.09-.375-.274V20.52a.367.367 0 01.26-.378c.394-.143.81-.213 1.228-.205a2.094 2.094 0 012.057 1.143 3.829 3.829 0 012.807-1.143zm-1.773 6.137a2.167 2.167 0 002.42.498c.27-.116.514-.285.716-.498a2.477 2.477 0 00.625-1.749 2.443 2.443 0 00-.625-1.748 2.17 2.17 0 00-1.568-.674 2.158 2.158 0 00-1.568.674 2.535 2.535 0 00-.602 1.748 2.57 2.57 0 00.602 1.749zm11.637 2.731a5.455 5.455 0 01-2.921-.708 2.783 2.783 0 01-1.318-2.023c0-.229.08-.343.33-.343h1.67a.429.429 0 01.375.251c.239.618.864.926 1.864.926.349.016.696-.055 1.011-.206a.657.657 0 00.386-.56c0-.297-.181-.502-.545-.64a6.113 6.113 0 00-1.33-.285 12.575 12.575 0 01-1.59-.286 2.607 2.607 0 01-1.33-.766 2.462 2.462 0 01-.521-1.878 2.452 2.452 0 011.01-1.665 4.662 4.662 0 012.75-.731 4.997 4.997 0 012.681.674 2.538 2.538 0 011.25 1.795c0 .228-.102.342-.306.342h-1.682a.35.35 0 01-.341-.205 1.139 1.139 0 00-.591-.606 1.992 1.992 0 00-.977-.229 1.968 1.968 0 00-.966.195.569.569 0 00-.364.525.728.728 0 00.546.675c.436.165.89.28 1.352.343.531.07 1.059.17 1.579.297.51.116.973.382 1.33.765a2.175 2.175 0 01.557 1.566 2.297 2.297 0 01-1.057 1.989 4.945 4.945 0 01-2.852.788zm15.919-.571a.303.303 0 01-.146.314.304.304 0 01-.115.04 4.35 4.35 0 01-1.284.217 2.508 2.508 0 01-2.273-.994 4.098 4.098 0 01-2.897.994 3.506 3.506 0 01-2.66-1.04 3.758 3.758 0 01-1.011-2.754v-4.468c0-.218.102-.332.318-.332h1.909c.216 0 .318.114.318.332v4.125c-.02.514.154 1.017.489 1.406a1.71 1.71 0 001.307.537 1.875 1.875 0 001.364-.503 1.83 1.83 0 00.511-1.36v-4.206c0-.217.102-.33.318-.33h1.932c.216 0 .318.113.318.33v5.383c0 .446.193.663.568.663.176.007.353-.012.523-.057a.294.294 0 01.341.146.32.32 0 01.034.128l.136 1.429zm18.057 0c.01.04.012.083.004.125a.299.299 0 01-.051.114.276.276 0 01-.095.082.272.272 0 01-.119.033 4.387 4.387 0 01-1.307.217 3.023 3.023 0 01-1.898-.548 1.786 1.786 0 01-.761-1.497v-2.686a2.033 2.033 0 00-.477-1.406 1.618 1.618 0 00-1.273-.537 1.419 1.419 0 00-1.136.503c-.3.383-.454.861-.432 1.348V28.2c0 .217-.102.331-.318.331h-1.921a.293.293 0 01-.245-.085.286.286 0 01-.084-.247v-4.125a2.12 2.12 0 00-.444-1.406 1.468 1.468 0 00-1.136-.537 1.638 1.638 0 00-1.25.503c-.325.37-.492.855-.466 1.348V28.2a.3.3 0 01-.013.133.3.3 0 01-.183.184.3.3 0 01-.133.014h-1.853c-.216 0-.318-.114-.318-.331v-5.383a.576.576 0 00-.024-.273.585.585 0 00-.646-.401h-.375c-.25 0-.375-.092-.375-.275V20.52a.368.368 0 01.261-.377 3.393 3.393 0 011.227-.206 2.13 2.13 0 012.023 1.051 3.84 3.84 0 012.886-1.051 3.245 3.245 0 012.694 1.211 3.748 3.748 0 012.977-1.211 3.588 3.588 0 012.693 1.04c.346.366.613.799.786 1.273.174.473.252.977.225 1.481v2.206c0 .434.194.651.557.651.176.008.353-.01.523-.057.235 0 .36.091.375.274l.102 1.429zM8.421 18.725a15.654 15.654 0 015.516-8.549 15.5 15.5 0 019.58-3.319 15.5 15.5 0 019.581 3.32 15.654 15.654 0 015.516 8.548h-1.363c-2.3-.034-4.554.658-6.444 1.977a3.38 3.38 0 01-.34.218h-.16a3.254 3.254 0 01-.34-.218 11.51 11.51 0 00-6.45-1.977 11.51 11.51 0 00-6.448 1.977c-.11.08-.223.152-.341.218h-.16a3.264 3.264 0 01-.34-.218 10.967 10.967 0 00-6.443-1.977H8.42zm26.375 7.166a3.815 3.815 0 012.455-.811h1.83v-3.67h-1.83a7.222 7.222 0 00-4.353 1.394 4.12 4.12 0 01-4.909 0 7.697 7.697 0 00-8.83 0 4.12 4.12 0 01-4.908 0 7.222 7.222 0 00-4.41-1.394H7.955v3.669h1.83a3.815 3.815 0 012.454.811 7.674 7.674 0 008.818 0 3.838 3.838 0 012.455-.811 3.792 3.792 0 012.454.811 7.697 7.697 0 008.83 0zm0 6.56a3.815 3.815 0 012.455-.811h1.83v-3.67h-1.83a7.222 7.222 0 00-4.353 1.394 4.12 4.12 0 01-4.909 0 7.697 7.697 0 00-8.83 0 4.12 4.12 0 01-4.908 0 7.223 7.223 0 00-4.41-1.394H7.955v3.669h1.83a3.815 3.815 0 012.454.811 7.674 7.674 0 008.818 0 3.838 3.838 0 012.455-.811 3.792 3.792 0 012.454.811 7.697 7.697 0 008.83 0z" fill="#010032"/></svg>