<svg width="156" height="40" fill="none" xmlns="http://www.w3.org/2000/svg"><path d="M46.385 12.588h3.774V27.75h-3.774V12.588zm5.271 9.437c0-3.75 2.315-5.987 5.888-5.987s5.888 2.237 5.888 5.987-2.265 6-5.888 6c-3.623 0-5.888-2.188-5.888-6zm7.989 0c0-2.063-.818-3.275-2.101-3.275s-2.089 1.25-2.089 3.275.793 3.25 2.089 3.25c1.296 0 2.1-1.15 2.1-3.237v-.013zm5.208 6.463h3.623a1.96 1.96 0 002.038 1.125c1.435 0 2.19-.776 2.19-1.9v-2.1h-.076a3.559 3.559 0 01-1.4 1.548 3.59 3.59 0 01-2.034.502c-2.756 0-4.58-2.088-4.58-5.675 0-3.588 1.736-5.85 4.63-5.85a3.628 3.628 0 012.082.56 3.588 3.588 0 011.39 1.64V16.25h3.774v11.375c0 2.738-2.428 4.438-6.013 4.438-3.334 0-5.41-1.488-5.624-3.563v-.012zm7.863-6.476c0-1.825-.843-2.974-2.176-2.974-1.334 0-2.152 1.137-2.152 2.974 0 1.838.805 2.875 2.152 2.875 1.346 0 2.176-1.012 2.176-2.862v-.012zm5.196 0c0-3.75 2.315-5.987 5.888-5.987s5.9 2.238 5.9 5.988c0 3.75-2.265 6-5.9 6-3.636 0-5.888-2.176-5.888-5.988v-.012zm7.989 0c0-2.062-.818-3.274-2.101-3.274-1.284 0-2.026 1.262-2.026 3.3 0 2.037.793 3.25 2.076 3.25s2.05-1.163 2.05-3.25v-.026zm5.233-8.487c-.01-.379.094-.752.297-1.072a1.936 1.936 0 012.956-.36 1.909 1.909 0 01.465 2.076 1.915 1.915 0 01-.692.874 1.933 1.933 0 01-1.063.345 1.846 1.846 0 01-1.386-.493 1.823 1.823 0 01-.577-1.345v-.025zm0 2.75h3.774V27.75h-3.774V16.275zm17.475 5.738c0 3.75-1.674 5.887-4.542 5.887a3.618 3.618 0 01-2.098-.512 3.587 3.587 0 01-1.425-1.613h-.075v5.65h-3.774V16.25h3.774v2.05h.075a3.596 3.596 0 011.398-1.655 3.626 3.626 0 012.1-.558c2.893.05 4.617 2.2 4.617 5.95l-.05-.024zm-3.775 0c0-1.826-.842-2.988-2.163-2.988-1.321 0-2.164 1.175-2.177 2.988-.012 1.812.856 2.974 2.177 2.974 1.321 0 2.163-1.137 2.163-2.95v-.024zm10.254-6c3.132 0 5.032 1.474 5.12 3.837h-3.435c0-.813-.679-1.325-1.723-1.325s-1.51.4-1.51.988c0 .587.415.774 1.258.95l2.416.487c2.302.488 3.283 1.413 3.283 3.15 0 2.375-2.176 3.9-5.384 3.9s-5.309-1.525-5.473-3.863h3.636c.113.85.793 1.35 1.9 1.35 1.107 0 1.61-.362 1.61-.962s-.352-.725-1.258-.912l-2.176-.463c-2.252-.462-3.435-1.65-3.435-3.4.025-2.25 2.051-3.712 5.171-3.712v-.026zm18.003 11.712h-3.636v-2.138h-.076c-.2.718-.64 1.346-1.249 1.78a3.3 3.3 0 01-2.097.608 4.039 4.039 0 01-3.103-1.199 3.98 3.98 0 01-1.124-3.113V16.25h3.774v6.55c0 1.363.704 2.087 1.874 2.087a1.942 1.942 0 001.451-.65 1.914 1.914 0 00.462-1.512V16.25h3.774l-.05 11.475zm1.824-11.475h3.648v2.212h.076c.2-.708.631-1.33 1.225-1.769a3.36 3.36 0 012.058-.655 3.02 3.02 0 012.096.627 2.985 2.985 0 011.112 1.873h.076c.227-.75.7-1.401 1.343-1.854a3.563 3.563 0 012.204-.646 3.676 3.676 0 012.762 1.114 3.629 3.629 0 011.013 2.786v7.812h-3.775v-6.813c0-1.25-.566-1.825-1.622-1.825a1.659 1.659 0 00-1.248.553 1.621 1.621 0 00-.4 1.298v6.787h-3.586v-6.863c0-1.15-.566-1.774-1.598-1.774a1.687 1.687 0 00-1.609 1.175c-.07.226-.093.464-.064.7v6.762h-3.774l.063-11.5zM35.83 13.275a16.545 16.545 0 00-2.516-4.025 17.002 17.002 0 00-5.567-4.427 17.11 17.11 0 00-19.853 3.37 16.896 16.896 0 00-3.773 6.012A16.812 16.812 0 005.173 28.02a16.942 16.942 0 004.64 5.38 16.495 16.495 0 004.026 2.288 16.942 16.942 0 006.379 1.25 17.115 17.115 0 0012.034-4.974A16.895 16.895 0 0037.239 20a16.645 16.645 0 00-1.409-6.725zM20.205 6.487c1.965 0 3.905.427 5.687 1.25a5.538 5.538 0 01-1.36.388 7.225 7.225 0 00-4.064 2.024 7.145 7.145 0 00-2.037 4.039 3.74 3.74 0 01-1.111 2.258 3.785 3.785 0 01-2.298 1.054 7.226 7.226 0 00-4.065 2.024 7.146 7.146 0 00-2.037 4.038 3.627 3.627 0 01-.994 2.175 13.425 13.425 0 01.804-13 13.552 13.552 0 014.932-4.605 13.656 13.656 0 016.556-1.67l-.013.025zM9.801 28.75c.15-.137.302-.262.453-.413a6.834 6.834 0 002.038-4.037 3.64 3.64 0 011.094-2.275 3.57 3.57 0 012.278-1.075 7.226 7.226 0 004.064-2.024 7.146 7.146 0 002.037-4.038A3.64 3.64 0 0122.86 12.5a3.621 3.621 0 012.302-1.037 6.914 6.914 0 003.774-1.788 13.161 13.161 0 012.97 3.475 1.08 1.08 0 01-.165.175 3.62 3.62 0 01-2.277 1.1 7.2 7.2 0 00-4.069 2.02 7.121 7.121 0 00-2.032 4.043 3.74 3.74 0 01-1.09 2.274c-.618.61-1.428.99-2.294 1.075a7.264 7.264 0 00-4.081 2.02 7.184 7.184 0 00-2.059 4.043 3.909 3.909 0 01-.616 1.713A13.68 13.68 0 019.8 28.75zm10.404 4.825a13.72 13.72 0 01-3.774-.525c.42-.777.693-1.625.805-2.5a3.74 3.74 0 011.086-2.271 3.784 3.784 0 012.286-1.079 7.227 7.227 0 004.072-2.02 7.146 7.146 0 002.042-4.043 3.74 3.74 0 011.086-2.27 3.784 3.784 0 012.285-1.08 7.21 7.21 0 003.221-1.25 13.44 13.44 0 01.184 6.115 13.485 13.485 0 01-2.546 5.569 13.594 13.594 0 01-4.756 3.885 13.683 13.683 0 01-5.99 1.407v.062z" fill="#010032"/></svg>