<svg width="168" height="36" fill="none" xmlns="http://www.w3.org/2000/svg"><path d="M26.903 16.045a4.386 4.386 0 00-1.255 3.515l-.022-.022a5.21 5.21 0 01-5.632 5.633l.021.022A4.414 4.414 0 1024 29.174l.023.022a5.21 5.21 0 015.633-5.633l-.023-.021a4.405 4.405 0 10-2.726-7.497h-.004z" fill="#010032"/><path d="M18.05 22.363l-.023-.021a4.357 4.357 0 004.772-4.77l.023.022a5.214 5.214 0 015.633-5.632l-.023-.022a4.415 4.415 0 10-3.981-3.982l-.022-.022a5.214 5.214 0 01-5.633 5.632l.022.023a4.358 4.358 0 00-4.773 4.769l-.021-.022a5.216 5.216 0 01-5.633 5.633l.022.022a4.412 4.412 0 00-1.172 8.742 4.414 4.414 0 005.153-4.76l.023.021a5.212 5.212 0 015.633-5.633z" fill="#010032"/><path d="M10.008 19.955a4.384 4.384 0 001.254-3.515l.023.022a5.213 5.213 0 015.635-5.633l-.023-.022a4.414 4.414 0 003.532-7.513 4.412 4.412 0 00-7.514 3.532l-.021-.022a5.21 5.21 0 01-3.404 5.334 5.213 5.213 0 01-2.229.299l.022.021a4.406 4.406 0 102.727 7.497h-.002zM47.181 7.986h3.564V25.33h-3.564V7.986zm5.582 11.404a6.298 6.298 0 0110.74-4.486 6.296 6.296 0 01-4.444 10.758 6.225 6.225 0 01-6.296-6.271zm9.029 0a2.736 2.736 0 00-3.312-2.595 2.734 2.734 0 00.58 5.405 2.669 2.669 0 002.566-1.729c.13-.345.186-.712.166-1.08zm17.768-5.94v11.28c0 3.992-3.112 5.68-6.272 5.68a6.076 6.076 0 01-5.63-2.88l3.04-1.759a2.716 2.716 0 002.709 1.497 2.368 2.368 0 002.684-2.542V23.64a4.22 4.22 0 01-3.469 1.544 6.037 6.037 0 010-12.068 4.22 4.22 0 013.47 1.544v-1.212l3.469.003zm-3.468 5.702a2.88 2.88 0 10-2.873 2.76 2.689 2.689 0 002.874-2.76zm5.486.238a6.297 6.297 0 116.296 6.272 6.223 6.223 0 01-6.296-6.271zm9.03 0a2.737 2.737 0 00-3.313-2.595 2.734 2.734 0 00.58 5.405 2.667 2.667 0 002.732-2.81zm5.226-9.123a2.133 2.133 0 011.32-1.975 2.14 2.14 0 11.818 4.114 2.16 2.16 0 01-2.138-2.139zm.36 3.184h3.565v11.88h-3.57l.005-11.88zm18.954 5.939a5.978 5.978 0 01-1.536 4.317 5.958 5.958 0 01-4.143 1.955 4.463 4.463 0 01-3.539-1.45v5.87h-3.564V13.45h3.564v1.116a4.472 4.472 0 013.539-1.449 5.967 5.967 0 015.679 6.273zm-3.564 0a2.83 2.83 0 00-3.422-2.692 2.828 2.828 0 00.595 5.59 2.708 2.708 0 002.667-1.774c.132-.36.186-.742.16-1.123zm14.561 2.376c0 2.732-2.375 3.896-4.94 3.896a5.204 5.204 0 01-5.109-2.827l3.088-1.758a1.953 1.953 0 002.016 1.401c.855 0 1.283-.261 1.283-.735 0-1.308-5.846-.618-5.846-4.728 0-2.59 2.187-3.897 4.658-3.897a5.192 5.192 0 014.632 2.542l-3.041 1.64a1.723 1.723 0 00-1.591-1.045c-.619 0-.999.24-.999.664.005 1.355 5.849.451 5.849 4.847zm13.02-8.316v11.88H135.6v-1.116a4.062 4.062 0 01-3.396 1.45c-2.4 0-4.44-1.71-4.44-4.92V13.45h3.564v6.77a1.955 1.955 0 00.533 1.56 1.951 1.951 0 001.534.6c1.307 0 2.209-.76 2.209-2.447v-6.48l3.561-.003zm20.436 4.586v7.294h-3.564v-6.985c0-1.188-.57-1.948-1.71-1.948-1.189 0-1.854.832-1.854 2.233v6.7h-3.564v-6.985c0-1.188-.569-1.948-1.71-1.948-1.188 0-1.853.832-1.853 2.233v6.7h-3.564V13.45h3.564v1.092a3.65 3.65 0 013.183-1.425 3.536 3.536 0 013.112 1.567 3.911 3.911 0 013.446-1.567c2.726.001 4.514 1.95 4.514 4.92zm3.014-4.658a2.645 2.645 0 100-5.291 2.645 2.645 0 000 5.29z" fill="#010032"/></svg>