<svg width="64" height="64" fill="none" xmlns="http://www.w3.org/2000/svg"><path d="M64 32C64 14.327 49.673 0 32 0 14.327 0 0 14.327 0 32c0 17.673 14.327 32 32 32 17.673 0 32-14.327 32-32z" fill="#D8D8EB" fill-opacity=".2"/><path d="M25.334 47h13.333M32 40.333V47m-8.334-28.333h16.667m0 0V32a8.333 8.333 0 01-16.667 0V18.667" stroke="#D8D8EB" stroke-width="3.333" stroke-linecap="round" stroke-linejoin="round"/><path d="M20.333 30.333a3.333 3.333 0 100-6.666 3.333 3.333 0 000 6.666zm23.334 0a3.333 3.333 0 100-6.666 3.333 3.333 0 000 6.666z" stroke="#D8D8EB" stroke-width="3.333" stroke-linecap="round" stroke-linejoin="round"/></svg>