<svg width="168" height="44" fill="none" xmlns="http://www.w3.org/2000/svg"><g clip-path="url(#clip0_1_237)" stroke="#D8D8EB" stroke-width="2"><path d="M0 5C6-.333 12-.333 18 5s12 5.333 18 0S48-.333 54 5s12 5.333 18 0S84-.333 90 5s12 5.333 18 0 12-5.333 18 0 12 5.333 18 0 12-5.333 18 0 12 5.333 18 0M49 39c6-5.333 12-5.333 18 0s12 5.333 18 0 12-5.333 18 0 12 5.333 18 0 12-5.333 18 0 12 5.333 18 0 12-5.333 18 0 12 5.333 18 0 12-5.333 18 0 12 5.333 18 0"/></g><defs><clipPath id="clip0_1_237"><path fill="#fff" d="M0 0h168v44H0z"/></clipPath></defs></svg>