<svg width="152" height="32" fill="none" xmlns="http://www.w3.org/2000/svg"><path d="M58.754 24.664L56.24 12.768h2.558l2.524 10.91-.577.023 1.573-10.933h3.623l-2.4 11.896h-4.788zm-8.354 0L48 12.768h3.622l1.574 10.933-.566-.023 2.502-10.91h2.558L55.2 24.665h-4.8zm18.472-4.906v-2.296h7.97l-.34.582v-.336c0-.425-.102-.832-.306-1.22a2.341 2.341 0 00-.95-.964c-.423-.254-.967-.38-1.631-.38s-1.238.141-1.72.425a2.748 2.748 0 00-1.099 1.198c-.249.523-.373 1.154-.373 1.893 0 .762.12 1.415.362 1.96.25.538.615.953 1.098 1.244.49.29 1.098.437 1.823.437.468 0 .871-.041 1.21-.124.34-.09.616-.201.827-.336.219-.134.385-.283.498-.448.113-.164.181-.325.204-.481h3.464c-.046.5-.219.993-.52 1.478-.303.478-.722.911-1.257 1.3-.536.38-1.189.683-1.959.907-.762.224-1.633.336-2.615.336-1.328 0-2.486-.262-3.475-.784-.988-.53-1.754-1.259-2.298-2.184-.543-.934-.815-2.01-.815-3.226 0-1.233.276-2.312.827-3.237a5.733 5.733 0 012.32-2.173c.996-.523 2.147-.785 3.453-.785 1.336 0 2.49.266 3.464.796a5.498 5.498 0 012.252 2.206c.528.941.793 2.039.793 3.294 0 .186-.004.365-.012.537a3.044 3.044 0 01-.034.38h-11.16zm20.633 5.164a4.8 4.8 0 01-2.615-.75 5.552 5.552 0 01-1.902-2.028c-.475-.859-.713-1.822-.713-2.89v-.179l1.517-.034v.134c0 .553.136 1.038.408 1.457.271.41.622.728 1.052.952.43.224.88.336 1.347.336a2.86 2.86 0 002.004-.784c.574-.53.86-1.356.86-2.476 0-1.12-.283-1.934-.849-2.442a2.893 2.893 0 00-2.015-.772 2.88 2.88 0 00-1.347.336c-.43.216-.78.526-1.052.93-.272.402-.408.884-.408 1.444l-1.517-.09c0-1.075.238-2.023.713-2.844a5.268 5.268 0 011.902-1.95 4.967 4.967 0 012.615-.716c.974 0 1.883.235 2.728.705.845.47 1.528 1.162 2.049 2.073.528.91.792 2.02.792 3.326 0 1.367-.256 2.517-.77 3.45-.513.926-1.192 1.628-2.037 2.106a5.584 5.584 0 01-2.762.706zm-7.233-.258V7.157h3.52v17.507h-3.52zM99.197 25c-.52 0-.962-.18-1.324-.538a1.774 1.774 0 01-.544-1.31c0-.508.181-.941.544-1.3a1.812 1.812 0 011.324-.537c.513 0 .951.18 1.313.537.363.359.544.792.544 1.3 0 .515-.181.952-.544 1.31-.362.359-.8.538-1.313.538zm4.986-.336v-9.207h-2.502v-2.689h2.502v-.817c0-.792.105-1.468.317-2.028.218-.567.513-1.037.883-1.41.369-.382.784-.68 1.245-.897.468-.224.947-.38 1.437-.47A7.568 7.568 0 01109.514 7c.498 0 .868.03 1.11.09.249.052.415.097.498.134v2.7a3.635 3.635 0 00-.487-.101 4.529 4.529 0 00-.736-.056c-.438 0-.8.056-1.087.168a1.541 1.541 0 00-.679.492c-.166.21-.283.46-.351.751a3.986 3.986 0 00-.102.93v.66h3.227v2.689h-3.227v9.207h-3.497zm14.09.258c-1.298 0-2.441-.265-3.429-.796a5.91 5.91 0 01-2.321-2.184c-.551-.933-.826-2.009-.826-3.226 0-1.21.275-2.277.826-3.203a5.729 5.729 0 012.321-2.173c.988-.523 2.131-.784 3.429-.784s2.442.261 3.43.784a5.657 5.657 0 012.31 2.173c.558.926.837 1.993.837 3.203 0 1.217-.279 2.293-.837 3.226-.551.926-1.321 1.654-2.31 2.184-.988.53-2.132.796-3.43.796zm0-2.756c.612 0 1.144-.142 1.597-.425a2.833 2.833 0 001.052-1.199c.249-.523.374-1.131.374-1.826 0-.694-.125-1.295-.374-1.803a2.76 2.76 0 00-1.052-1.187c-.453-.277-.985-.415-1.597-.415-.603 0-1.135.138-1.596.415a2.76 2.76 0 00-1.052 1.187c-.249.508-.374 1.109-.374 1.803 0 .695.125 1.303.374 1.826.249.515.6.915 1.052 1.198.461.284.993.426 1.596.426zm12.403-15.009v17.507h-3.464V7.157h3.464zm2.664 17.507V12.768h3.475v11.896h-3.475zm1.732-13.833c-.543 0-1.019-.142-1.426-.426-.4-.284-.6-.683-.6-1.198 0-.523.2-.926.6-1.21.407-.284.883-.426 1.426-.426.551 0 1.026.142 1.426.426.408.284.612.687.612 1.21 0 .522-.204.925-.612 1.21-.4.276-.875.414-1.426.414zm10.351 14.091c-1.298 0-2.441-.265-3.43-.796a5.915 5.915 0 01-2.32-2.184c-.551-.933-.827-2.009-.827-3.226 0-1.21.276-2.277.827-3.203a5.733 5.733 0 012.32-2.173c.989-.523 2.132-.784 3.43-.784s2.442.261 3.43.784a5.654 5.654 0 012.309 2.173c.559.926.838 1.993.838 3.203 0 1.217-.279 2.293-.838 3.226-.551.926-1.32 1.654-2.309 2.184-.988.53-2.132.796-3.43.796zm0-2.756c.611 0 1.144-.142 1.596-.425a2.828 2.828 0 001.053-1.199c.249-.523.374-1.131.374-1.826 0-.694-.125-1.295-.374-1.803a2.755 2.755 0 00-1.053-1.187c-.452-.277-.985-.415-1.596-.415-.604 0-1.136.138-1.596.415a2.755 2.755 0 00-1.053 1.187c-.249.508-.373 1.109-.373 1.803 0 .695.124 1.303.373 1.826.249.515.6.915 1.053 1.198.46.284.992.426 1.596.426z" fill="#fff"/><path d="M2.667 24h2.666A2.663 2.663 0 008 21.333v-2.666A2.663 2.663 0 005.333 16H2.667A2.663 2.663 0 000 18.667v2.666A2.663 2.663 0 002.667 24zm8-8h2.666A2.663 2.663 0 0016 13.333v-2.666A2.663 2.663 0 0013.333 8h-2.666A2.663 2.663 0 008 10.667v2.666A2.663 2.663 0 0010.667 16zm10.666 8h-2.666A2.663 2.663 0 0116 21.333v-2.666A2.663 2.663 0 0118.667 16h2.666A2.663 2.663 0 0124 18.667v2.666A2.663 2.663 0 0121.333 24zm-8 0h-2.666A2.663 2.663 0 008 26.667v2.666A2.663 2.663 0 0010.667 32h2.666A2.663 2.663 0 0016 29.333v-2.666A2.663 2.663 0 0013.333 24zm5.334-16h2.666A2.663 2.663 0 0024 5.333V2.667A2.663 2.663 0 0021.333 0h-2.666A2.663 2.663 0 0016 2.667v2.666A2.663 2.663 0 0018.667 8zm10.666 8h-2.666A2.663 2.663 0 0124 13.333v-2.666A2.663 2.663 0 0126.667 8h2.666A2.663 2.663 0 0132 10.667v2.666A2.663 2.663 0 0129.333 16z" fill="#D8D8EB"/><path d="M5.334 16a2.663 2.663 0 002.667-2.667A2.663 2.663 0 0010.667 16a2.663 2.663 0 00-2.666 2.667A2.663 2.663 0 005.334 16zm8-8a2.663 2.663 0 002.667-2.667A2.663 2.663 0 0018.667 8a2.663 2.663 0 00-2.666 2.667A2.663 2.663 0 0013.334 8zm0 16a2.663 2.663 0 002.667-2.667A2.663 2.663 0 0018.667 24a2.663 2.663 0 00-2.666 2.667A2.663 2.663 0 0013.334 24zm8-8a2.663 2.663 0 002.667-2.667A2.663 2.663 0 0026.667 16a2.663 2.663 0 00-2.666 2.667A2.663 2.663 0 0021.334 16zm-8 0a2.663 2.663 0 002.667-2.667A2.663 2.663 0 0018.667 16a2.663 2.663 0 00-2.666 2.667A2.663 2.663 0 0013.334 16zm8-8a2.663 2.663 0 002.667-2.667A2.663 2.663 0 0026.667 8a2.663 2.663 0 00-2.666 2.667A2.663 2.663 0 0021.334 8zm-16 16a2.663 2.663 0 002.667-2.667A2.663 2.663 0 0010.667 24a2.663 2.663 0 00-2.666 2.667A2.663 2.663 0 005.334 24z" fill="#D8D8EB"/><path d="M24 0H8a8 8 0 00-8 8v16a8 8 0 008 8h16a8 8 0 008-8V8a8 8 0 00-8-8z" fill="#D8D8EB"/><path d="M28 22a6 6 0 10-12 0 6 6 0 0012 0z" fill="#010032"/></svg>